<?xml version="1.0" encoding="utf-8"?>
<!-- Generator: Adobe Illustrator 16.0.4, SVG Export Plug-In . SVG Version: 6.00 Build 0)  -->
<!DOCTYPE svg PUBLIC "-//W3C//DTD SVG 1.1//EN" "http://www.w3.org/Graphics/SVG/1.1/DTD/svg11.dtd">
<svg version="1.1" xmlns="http://www.w3.org/2000/svg" xmlns:xlink="http://www.w3.org/1999/xlink" x="0px" y="0px"
	 width="999.599px" height="8.438px" viewBox="0 0 999.599 8.438" enable-background="new 0 0 999.599 8.438" xml:space="preserve">
<g id="Layer_1">
</g>
<g id="background">
</g>
<g id="Layer_6">
	<rect fill="#003E52" width="999.599" height="8.438"/>
	<g>
		<path fill="#396676" d="M989.59,6.645c-2.596,0-3.903-1.138-5.168-2.238c-1.25-1.087-2.431-2.115-4.839-2.115
			s-3.588,1.027-4.838,2.115c-1.264,1.1-2.571,2.237-5.164,2.237c-2.595,0-3.901-1.137-5.166-2.237
			c-1.25-1.088-2.431-2.115-4.839-2.115c-2.406,0-3.587,1.027-4.836,2.115c-1.264,1.1-2.571,2.238-5.165,2.238
			c-2.593,0-3.898-1.137-5.162-2.237c-1.249-1.088-2.429-2.115-4.835-2.115s-3.587,1.027-4.836,2.115
			c-1.264,1.1-2.57,2.237-5.163,2.237c-2.594,0-3.901-1.138-5.165-2.238c-1.249-1.087-2.43-2.115-4.836-2.115
			s-3.587,1.027-4.836,2.115c-1.264,1.1-2.571,2.238-5.165,2.238c-2.593,0-3.9-1.137-5.164-2.237
			c-1.25-1.088-2.43-2.115-4.838-2.115c-2.406,0-3.586,1.027-4.835,2.115c-1.264,1.1-2.57,2.238-5.164,2.238
			s-3.901-1.138-5.165-2.238c-1.249-1.087-2.429-2.115-4.835-2.115s-3.586,1.027-4.835,2.115c-1.264,1.1-2.57,2.237-5.163,2.237
			c-2.594,0-3.9-1.137-5.164-2.237c-1.249-1.088-2.43-2.115-4.837-2.115c-2.406,0-3.586,1.027-4.835,2.115
			c-1.264,1.1-2.57,2.237-5.163,2.237s-3.899-1.138-5.163-2.238c-1.249-1.087-2.428-2.115-4.833-2.115
			c-2.406,0-3.586,1.027-4.835,2.115c-1.264,1.1-2.57,2.237-5.163,2.237s-3.898-1.138-5.162-2.237
			c-1.249-1.088-2.429-2.115-4.834-2.115s-3.584,1.027-4.833,2.115c-1.264,1.1-2.57,2.238-5.163,2.238
			c-2.592,0-3.898-1.138-5.161-2.237c-1.249-1.088-2.428-2.115-4.833-2.115c-2.406,0-3.586,1.027-4.835,2.115
			c-1.264,1.1-2.569,2.237-5.162,2.237c-2.594,0-3.9-1.137-5.164-2.237c-1.249-1.088-2.43-2.115-4.836-2.115
			s-3.586,1.027-4.835,2.115c-1.264,1.1-2.57,2.238-5.164,2.238c-2.593,0-3.898-1.137-5.162-2.237
			c-1.249-1.088-2.429-2.115-4.835-2.115c-2.407,0-3.587,1.027-4.836,2.115c-1.264,1.1-2.57,2.237-5.162,2.237
			c-2.593,0-3.899-1.137-5.163-2.237c-1.249-1.088-2.43-2.115-4.836-2.115c-2.405,0-3.585,1.027-4.834,2.115
			c-1.264,1.1-2.57,2.238-5.163,2.238s-3.899-1.138-5.163-2.237c-1.249-1.088-2.429-2.115-4.835-2.115s-3.586,1.027-4.835,2.115
			c-1.264,1.1-2.569,2.237-5.162,2.237c-2.594,0-3.9-1.138-5.164-2.238c-1.249-1.087-2.429-2.115-4.835-2.115
			s-3.586,1.027-4.835,2.115c-1.264,1.1-2.569,2.237-5.162,2.237c-2.592,0-3.898-1.137-5.162-2.237
			c-1.249-1.088-2.429-2.115-4.836-2.115c-2.405,0-3.585,1.027-4.834,2.115c-1.264,1.1-2.569,2.237-5.162,2.237
			s-3.899-1.138-5.163-2.238c-1.249-1.087-2.429-2.115-4.834-2.115c-2.407,0-3.587,1.027-4.836,2.115
			c-1.264,1.1-2.57,2.237-5.162,2.237s-3.897-1.137-5.161-2.237c-1.249-1.088-2.429-2.115-4.835-2.115
			c-2.405,0-3.585,1.027-4.834,2.115c-1.264,1.1-2.57,2.238-5.163,2.238s-3.898-1.138-5.162-2.237
			c-1.249-1.088-2.429-2.115-4.834-2.115s-3.585,1.027-4.834,2.115c-1.264,1.1-2.569,2.237-5.161,2.237
			c-2.593,0-3.898-1.137-5.162-2.237c-1.249-1.088-2.429-2.115-4.835-2.115c-2.405,0-3.585,1.027-4.834,2.115
			c-1.264,1.1-2.57,2.238-5.163,2.238c-2.592,0-3.898-1.138-5.161-2.237c-1.248-1.088-2.428-2.115-4.833-2.115
			c-2.406,0-3.585,1.027-4.834,2.115c-1.264,1.1-2.569,2.237-5.161,2.237c-2.594,0-3.9-1.138-5.164-2.238
			c-1.249-1.087-2.429-2.115-4.835-2.115c-2.405,0-3.584,1.027-4.833,2.115c-1.264,1.1-2.569,2.238-5.162,2.238
			c-2.591,0-3.897-1.137-5.16-2.237c-1.249-1.088-2.429-2.115-4.834-2.115s-3.584,1.027-4.833,2.115
			c-1.264,1.1-2.569,2.238-5.162,2.238s-3.899-1.138-5.163-2.238c-1.249-1.087-2.429-2.115-4.834-2.115
			c-2.405,0-3.584,1.027-4.833,2.115c-1.263,1.1-2.569,2.238-5.162,2.238c-2.592,0-3.897-1.137-5.161-2.237
			c-1.249-1.088-2.428-2.115-4.833-2.115s-3.584,1.027-4.833,2.115c-1.263,1.1-2.569,2.237-5.161,2.237
			c-2.592,0-3.899-1.138-5.162-2.237c-1.249-1.088-2.428-2.115-4.834-2.115s-3.585,1.027-4.834,2.115
			c-1.263,1.1-2.57,2.237-5.162,2.237c-2.592,0-3.897-1.137-5.161-2.237c-1.249-1.088-2.428-2.115-4.833-2.115
			c-2.404,0-3.583,1.027-4.832,2.115c-1.263,1.1-2.569,2.238-5.16,2.238c-2.592,0-3.898-1.138-5.161-2.237
			c-1.249-1.088-2.428-2.115-4.833-2.115s-3.585,1.027-4.833,2.115c-1.263,1.1-2.569,2.237-5.162,2.237s-3.899-1.138-5.162-2.237
			c-1.249-1.088-2.428-2.115-4.834-2.115c-2.405,0-3.584,1.027-4.833,2.115c-1.263,1.1-2.569,2.237-5.161,2.237
			c-2.591,0-3.896-1.137-5.159-2.237c-1.248-1.088-2.427-2.115-4.832-2.115s-3.584,1.027-4.832,2.115
			c-1.263,1.1-2.568,2.237-5.16,2.237s-3.897-1.137-5.16-2.237c-1.249-1.088-2.428-2.115-4.833-2.115s-3.585,1.027-4.833,2.115
			c-1.263,1.1-2.569,2.237-5.162,2.237s-3.899-1.138-5.162-2.238c-1.249-1.087-2.428-2.115-4.833-2.115
			c-2.405,0-3.584,1.027-4.833,2.115c-1.263,1.1-2.569,2.238-5.161,2.238c-2.591,0-3.897-1.138-5.16-2.238
			c-1.248-1.087-2.427-2.115-4.832-2.115c-2.404,0-3.583,1.027-4.831,2.115c-1.263,1.1-2.568,2.238-5.159,2.238
			c-2.592,0-3.897-1.138-5.16-2.238c-1.248-1.087-2.427-2.115-4.831-2.115c-2.404,0-3.583,1.027-4.832,2.115
			c-1.263,1.1-2.568,2.238-5.16,2.238s-3.898-1.137-5.161-2.237c-1.249-1.088-2.428-2.115-4.833-2.115
			c-2.406,0-3.585,1.027-4.834,2.115c-1.263,1.1-2.569,2.237-5.162,2.237c-2.592,0-3.897-1.138-5.161-2.238
			c-1.249-1.087-2.428-2.115-4.832-2.115s-3.583,1.027-4.832,2.115c-1.263,1.1-2.568,2.238-5.16,2.238
			c-2.591,0-3.896-1.138-5.159-2.238c-1.248-1.087-2.427-2.115-4.831-2.115s-3.583,1.027-4.831,2.115
			c-1.263,1.1-2.568,2.238-5.159,2.238c-2.592,0-3.898-1.138-5.162-2.238c-1.249-1.087-2.428-2.115-4.833-2.115
			s-3.584,1.027-4.833,2.115c-1.263,1.1-2.569,2.238-5.162,2.238s-3.898-1.138-5.162-2.238c-1.249-1.087-2.428-2.115-4.833-2.115
			c-2.406,0-3.585,1.027-4.834,2.115c-1.263,1.1-2.57,2.237-5.162,2.237s-3.899-1.138-5.162-2.238
			c-1.249-1.087-2.428-2.115-4.833-2.115s-3.584,1.027-4.833,2.115c-1.263,1.1-2.569,2.237-5.161,2.237S186,5.507,184.736,4.407
			c-1.249-1.088-2.428-2.115-4.833-2.115s-3.585,1.027-4.833,2.115c-1.263,1.1-2.569,2.237-5.161,2.237
			c-2.592,0-3.899-1.138-5.162-2.237c-1.249-1.088-2.428-2.115-4.834-2.115c-2.405,0-3.585,1.027-4.833,2.115
			c-1.263,1.1-2.569,2.237-5.161,2.237c-2.592,0-3.898-1.138-5.162-2.238c-1.249-1.087-2.428-2.115-4.833-2.115
			c-2.405,0-3.584,1.027-4.833,2.115c-1.263,1.1-2.569,2.237-5.161,2.237s-3.898-1.137-5.161-2.237
			c-1.249-1.088-2.428-2.115-4.833-2.115c-2.406,0-3.585,1.027-4.834,2.115c-1.263,1.1-2.57,2.237-5.162,2.237
			s-3.898-1.138-5.162-2.238c-1.249-1.087-2.428-2.115-4.833-2.115s-3.584,1.027-4.833,2.115c-1.263,1.1-2.569,2.237-5.161,2.237
			s-3.898-1.138-5.161-2.237c-1.249-1.088-2.428-2.115-4.833-2.115s-3.584,1.027-4.833,2.115c-1.263,1.1-2.569,2.237-5.161,2.237
			c-2.592,0-3.898-1.138-5.162-2.237c-1.249-1.088-2.428-2.115-4.833-2.115c-2.405,0-3.584,1.027-4.833,2.115
			c-1.263,1.1-2.569,2.238-5.162,2.238c-2.592,0-3.898-1.137-5.161-2.237c-1.249-1.088-2.428-2.115-4.833-2.115
			s-3.584,1.027-4.833,2.115c-1.263,1.1-2.569,2.237-5.161,2.237s-3.897-1.137-5.161-2.237c-1.249-1.088-2.428-2.115-4.833-2.115
			s-3.584,1.027-4.833,2.115c-1.263,1.1-2.569,2.237-5.161,2.237S6.097,5.507,4.833,4.407C3.585,3.319,2.405,2.292,0,2.292V1.793
			c2.592,0,3.898,1.138,5.162,2.238C6.41,5.118,7.589,6.146,9.995,6.146c2.405,0,3.584-1.027,4.833-2.115
			c1.263-1.1,2.569-2.238,5.161-2.238s3.898,1.138,5.162,2.238c1.249,1.087,2.428,2.115,4.833,2.115s3.584-1.027,4.833-2.115
			c1.263-1.1,2.569-2.238,5.161-2.238c2.592,0,3.898,1.138,5.162,2.238c1.249,1.087,2.428,2.115,4.833,2.115
			c2.406,0,3.585-1.027,4.834-2.115c1.263-1.1,2.569-2.237,5.161-2.237c2.592,0,3.898,1.138,5.162,2.237
			c1.249,1.088,2.428,2.115,4.833,2.115s3.584-1.027,4.833-2.115c1.263-1.1,2.569-2.237,5.161-2.237s3.898,1.138,5.161,2.237
			c1.249,1.088,2.428,2.115,4.833,2.115c2.405,0,3.584-1.027,4.833-2.115c1.263-1.1,2.569-2.237,5.161-2.237
			c2.592,0,3.898,1.137,5.161,2.237c1.249,1.088,2.428,2.115,4.833,2.115c2.406,0,3.585-1.027,4.834-2.115
			c1.263-1.1,2.57-2.237,5.162-2.237s3.898,1.138,5.162,2.238c1.249,1.087,2.428,2.115,4.833,2.115c2.405,0,3.584-1.027,4.833-2.115
			c1.263-1.1,2.569-2.237,5.161-2.237s3.898,1.137,5.161,2.237c1.249,1.088,2.428,2.115,4.833,2.115s3.584-1.027,4.833-2.115
			c1.263-1.1,2.569-2.238,5.162-2.238s3.899,1.138,5.162,2.237c1.249,1.088,2.428,2.115,4.834,2.115
			c2.405,0,3.584-1.027,4.833-2.115c1.263-1.1,2.569-2.238,5.162-2.238s3.898,1.138,5.162,2.238
			c1.249,1.087,2.428,2.115,4.833,2.115c2.405,0,3.584-1.027,4.833-2.115c1.263-1.1,2.569-2.237,5.161-2.237
			c2.592,0,3.898,1.137,5.162,2.237c1.249,1.088,2.428,2.115,4.834,2.115s3.585-1.027,4.834-2.115c1.263-1.1,2.57-2.237,5.162-2.237
			c2.592,0,3.898,1.137,5.161,2.237c1.249,1.088,2.428,2.115,4.833,2.115s3.585-1.027,4.833-2.115
			c1.263-1.1,2.569-2.237,5.161-2.237s3.898,1.137,5.161,2.237c1.249,1.088,2.428,2.115,4.833,2.115
			c2.404,0,3.583-1.027,4.831-2.115c1.263-1.1,2.568-2.238,5.159-2.238s3.896,1.138,5.159,2.238
			c1.248,1.087,2.427,2.115,4.831,2.115c2.404,0,3.583-1.027,4.832-2.115c1.263-1.1,2.568-2.238,5.16-2.238s3.897,1.137,5.16,2.237
			c1.249,1.088,2.428,2.115,4.833,2.115c2.405,0,3.585-1.027,4.833-2.115c1.263-1.1,2.57-2.238,5.162-2.238s3.898,1.138,5.162,2.238
			c1.249,1.087,2.428,2.115,4.833,2.115s3.584-1.027,4.832-2.115c1.263-1.1,2.568-2.237,5.16-2.237c2.591,0,3.896,1.137,5.159,2.237
			c1.248,1.088,2.427,2.115,4.832,2.115c2.404,0,3.583-1.027,4.831-2.115c1.263-1.1,2.568-2.237,5.159-2.237
			c2.591,0,3.897,1.138,5.16,2.238c1.248,1.087,2.427,2.115,4.832,2.115c2.405,0,3.584-1.027,4.833-2.115
			c1.263-1.1,2.569-2.238,5.161-2.238c2.592,0,3.898,1.137,5.162,2.237c1.249,1.088,2.428,2.115,4.834,2.115
			c2.405,0,3.585-1.027,4.833-2.115c1.263-1.1,2.569-2.237,5.162-2.237s3.898,1.138,5.161,2.238
			c1.249,1.087,2.428,2.115,4.832,2.115s3.583-1.027,4.832-2.115c1.263-1.1,2.568-2.238,5.16-2.238s3.897,1.138,5.16,2.238
			c1.248,1.087,2.427,2.115,4.831,2.115c2.405,0,3.584-1.027,4.833-2.115c1.263-1.1,2.569-2.238,5.161-2.238
			s3.899,1.138,5.162,2.237c1.249,1.088,2.428,2.115,4.834,2.115c2.405,0,3.585-1.027,4.833-2.115
			c1.263-1.1,2.569-2.237,5.162-2.237c2.592,0,3.898,1.138,5.161,2.237c1.249,1.088,2.428,2.115,4.833,2.115
			c2.405,0,3.584-1.027,4.832-2.115c1.263-1.1,2.568-2.237,5.16-2.237c2.592,0,3.898,1.138,5.161,2.238
			c1.249,1.087,2.428,2.115,4.833,2.115c2.406,0,3.585-1.027,4.834-2.115c1.264-1.1,2.57-2.237,5.162-2.237s3.899,1.138,5.162,2.237
			c1.249,1.088,2.428,2.115,4.834,2.115c2.405,0,3.584-1.027,4.833-2.115c1.263-1.1,2.569-2.237,5.161-2.237
			c2.592,0,3.898,1.138,5.161,2.238c1.249,1.087,2.428,2.115,4.833,2.115c2.405,0,3.585-1.027,4.833-2.115
			c1.263-1.1,2.569-2.237,5.161-2.237c2.593,0,3.899,1.137,5.163,2.237c1.249,1.088,2.429,2.115,4.835,2.115
			c2.405,0,3.585-1.027,4.834-2.115c1.264-1.1,2.569-2.237,5.161-2.237c2.593,0,3.898,1.138,5.162,2.238
			c1.248,1.087,2.428,2.115,4.832,2.115c2.405,0,3.585-1.027,4.834-2.115c1.264-1.1,2.569-2.237,5.161-2.237
			c2.593,0,3.899,1.137,5.163,2.237c1.249,1.088,2.43,2.115,4.836,2.115c2.405,0,3.584-1.027,4.833-2.115
			c1.264-1.1,2.569-2.238,5.162-2.238c2.592,0,3.898,1.138,5.161,2.237c1.248,1.088,2.428,2.115,4.833,2.115
			c2.406,0,3.586-1.027,4.835-2.115c1.264-1.1,2.569-2.237,5.162-2.237s3.899,1.138,5.163,2.238
			c1.249,1.087,2.429,2.115,4.834,2.115s3.584-1.027,4.833-2.115c1.264-1.1,2.569-2.238,5.162-2.238s3.898,1.138,5.162,2.237
			c1.249,1.088,2.429,2.115,4.834,2.115c2.406,0,3.586-1.027,4.835-2.115c1.264-1.1,2.569-2.237,5.162-2.237
			s3.899,1.138,5.163,2.238c1.249,1.087,2.428,2.115,4.833,2.115s3.585-1.027,4.834-2.115c1.264-1.1,2.57-2.238,5.164-2.238
			c2.592,0,3.898,1.137,5.162,2.237c1.249,1.088,2.429,2.115,4.835,2.115c2.405,0,3.585-1.027,4.834-2.115
			c1.264-1.1,2.569-2.237,5.162-2.237c2.594,0,3.9,1.138,5.164,2.238c1.249,1.087,2.429,2.115,4.834,2.115s3.585-1.027,4.834-2.115
			c1.264-1.1,2.57-2.238,5.163-2.238s3.899,1.137,5.163,2.237c1.249,1.088,2.43,2.115,4.836,2.115c2.405,0,3.585-1.027,4.834-2.115
			c1.264-1.1,2.57-2.238,5.163-2.238s3.899,1.138,5.163,2.237c1.249,1.088,2.429,2.115,4.835,2.115s3.586-1.027,4.835-2.115
			c1.264-1.1,2.569-2.237,5.162-2.237c2.594,0,3.9,1.138,5.164,2.238c1.249,1.087,2.429,2.115,4.835,2.115
			c2.405,0,3.585-1.027,4.834-2.115c1.264-1.1,2.57-2.238,5.164-2.238c2.593,0,3.899,1.138,5.163,2.238
			c1.249,1.087,2.429,2.115,4.834,2.115c2.406,0,3.587-1.027,4.836-2.115c1.264-1.1,2.57-2.237,5.163-2.237
			c2.594,0,3.9,1.137,5.164,2.237c1.249,1.088,2.43,2.115,4.836,2.115c2.405,0,3.585-1.027,4.834-2.115
			c1.264-1.1,2.57-2.238,5.163-2.238c2.592,0,3.897,1.138,5.161,2.237c1.249,1.088,2.428,2.115,4.833,2.115
			c2.406,0,3.586-1.027,4.835-2.115c1.264-1.1,2.569-2.237,5.161-2.237c2.593,0,3.898,1.138,5.162,2.237
			c1.249,1.088,2.429,2.115,4.834,2.115c2.406,0,3.586-1.027,4.835-2.115c1.264-1.1,2.57-2.237,5.163-2.237
			c2.592,0,3.897,1.137,5.161,2.237c1.249,1.088,2.429,2.115,4.835,2.115s3.586-1.027,4.835-2.115c1.264-1.1,2.57-2.237,5.163-2.237
			c2.594,0,3.901,1.138,5.165,2.238c1.249,1.087,2.43,2.115,4.836,2.115s3.586-1.027,4.835-2.115c1.264-1.1,2.57-2.237,5.163-2.237
			s3.899,1.137,5.163,2.237c1.249,1.088,2.43,2.115,4.837,2.115c2.406,0,3.587-1.027,4.836-2.115c1.264-1.1,2.57-2.237,5.163-2.237
			c2.595,0,3.901,1.138,5.166,2.238c1.249,1.087,2.43,2.115,4.836,2.115c2.407,0,3.588-1.027,4.837-2.115
			c1.264-1.1,2.57-2.237,5.164-2.237s3.9,1.137,5.164,2.237c1.249,1.088,2.43,2.115,4.837,2.115c2.406,0,3.586-1.027,4.835-2.115
			c1.264-1.1,2.57-2.238,5.164-2.238c2.593,0,3.899,1.138,5.163,2.238c1.249,1.087,2.429,2.115,4.834,2.115
			c2.407,0,3.588-1.027,4.837-2.115c1.264-1.1,2.571-2.237,5.164-2.237c2.595,0,3.902,1.138,5.167,2.238
			c1.25,1.087,2.431,2.115,4.838,2.115c2.406,0,3.587-1.027,4.836-2.115c1.265-1.1,2.571-2.238,5.166-2.238s3.902,1.137,5.167,2.237
			c1.25,1.088,2.432,2.115,4.84,2.115c2.409,0,3.591-1.027,4.841-2.115c1.265-1.1,2.573-2.237,5.168-2.237v0.499
			c-2.408,0-3.59,1.027-4.84,2.115C993.494,5.507,992.186,6.645,989.59,6.645z"/>
	</g>
</g>
<g id="Layer_7" display="none">
</g>
<g id="Layer_2">
</g>
</svg>
