<?xml version="1.0" encoding="utf-8"?>
<!-- Generator: Adobe Illustrator 16.0.4, SVG Export Plug-In . SVG Version: 6.00 Build 0)  -->
<!DOCTYPE svg PUBLIC "-//W3C//DTD SVG 1.1//EN" "http://www.w3.org/Graphics/SVG/1.1/DTD/svg11.dtd">
<svg version="1.1" xmlns="http://www.w3.org/2000/svg" xmlns:xlink="http://www.w3.org/1999/xlink" x="0px" y="0px"
	 width="261.692px" height="65.667px" viewBox="0 0 261.692 65.667" enable-background="new 0 0 261.692 65.667"
	 xml:space="preserve">
<g id="Layer_1">
</g>
<g id="background">
</g>
<g id="Layer_6">
</g>
<g id="Layer_7" display="none">
</g>
<g id="Layer_2">
	<g>
		
			<path fill="#EE7700" stroke="#EE7700" stroke-width="1.0575" stroke-linecap="round" stroke-linejoin="round" stroke-miterlimit="10" d="
			M41.559,49.767h-7.264c-0.13,0-0.25,0.074-0.309,0.19c-2.248,4.46-6.469,7.018-11.582,7.018c-7.424,0-13.462-6.524-13.462-14.544
			c0-8.107,6.039-14.702,13.462-14.702c5.034,0,9.256,2.559,11.584,7.02c0.06,0.115,0.178,0.187,0.306,0.187h7.264
			c0.001,0,0.002,0,0.003,0c0.194-0.001,0.349-0.153,0.349-0.346c0-0.062-0.017-0.122-0.046-0.173
			c-2.915-8.51-10.365-13.794-19.46-13.794c-4.334,0-8.471,1.369-12.007,3.968V1.881c0-0.191-0.155-0.346-0.346-0.346H1.812
			c-0.092,0-0.18,0.037-0.244,0.102C1.503,1.701,1.467,1.789,1.467,1.881l0.005,40.366L1.47,42.309
			c-0.002,0.041-0.003,0.082-0.003,0.123s0.001,0.083,0.003,0.124l0.002,0.28c0,0.023,0.002,0.045,0.006,0.067
			c0.117,5.679,2.34,10.996,6.264,14.979c3.939,3.998,9.146,6.2,14.662,6.2c9.2,0,16.665-5.311,19.482-13.858
			c0.035-0.106,0.017-0.222-0.048-0.311C41.773,49.821,41.669,49.767,41.559,49.767z"/>
	</g>
	<path fill="#003E52" d="M28.895,43.357c-2.035,0-3.685-1.65-3.685-3.685c0-2.036,1.65-3.685,3.685-3.685
		c0.226,0,0.446,0.024,0.661,0.062c-1.643-1.989-4.026-3.248-6.688-3.248c-4.955,0-8.971,4.338-8.971,9.69
		c0,5.352,4.017,9.69,8.971,9.69c4.954,0,8.971-4.338,8.971-9.69c0-0.194-0.017-0.383-0.027-0.573
		C31.137,42.793,30.083,43.357,28.895,43.357z M23.625,47.787c-0.808,0-1.462-0.655-1.462-1.463c0-0.807,0.655-1.461,1.462-1.461
		s1.461,0.655,1.461,1.461C25.087,47.132,24.433,47.787,23.625,47.787z"/>
	<g>
		<path fill="#003E52" d="M64.68,48.253l-0.651,1.396h-1.333V28.782h-2.108v-1.86h4.248v11.224c1.116-1.085,2.418-1.984,4.527-1.984
			c3.441,0,6.294,2.759,6.294,6.852c0,3.783-2.729,6.853-6.635,6.853C67.346,49.866,65.827,49.214,64.68,48.253z M73.454,43.044
			c0-3.008-1.892-5.023-4.465-5.023c-1.705,0-3.069,0.868-4.155,1.984v6.511c1.023,0.806,2.356,1.488,4.062,1.488
			C71.438,48.005,73.454,46.021,73.454,43.044z"/>
		<path fill="#003E52" d="M80.201,48.098c-0.403-0.713-0.62-1.643-0.62-2.697V38.3h-2.108v-1.891h4.248v8.588
			c0,0.744,0.124,1.333,0.372,1.768c0.403,0.775,1.085,1.116,2.171,1.116c1.643,0,3.101-1.054,4.341-2.325V38.3h-2.171v-1.891h4.31
			v11.348h2.108v1.86h-4.186v-2.449c-1.24,1.457-3.038,2.697-4.93,2.697C81.999,49.866,80.852,49.214,80.201,48.098z"/>
		<path fill="#003E52" d="M104.311,40.471c-0.806,0-1.426-0.559-1.426-1.364c0-0.217,0.031-0.496,0.155-0.744
			c-0.465-0.311-1.333-0.465-2.325-0.465c-1.829,0-2.884,0.961-2.884,1.922c0,1.147,1.209,1.55,3.38,2.108
			c2.667,0.651,4.899,1.396,4.899,3.969c0,2.512-2.45,3.969-5.271,3.969c-1.922,0-3.876-0.62-4.775-1.52
			c-0.465-0.465-0.713-0.992-0.713-1.643c0-0.775,0.559-1.458,1.333-1.458c0.837,0,1.426,0.559,1.426,1.364
			c0,0.279-0.093,0.527-0.217,0.807c0.434,0.341,1.519,0.744,2.945,0.744c1.798,0,3.225-0.775,3.225-2.047
			c0-1.209-1.24-1.674-3.132-2.139c-3.193-0.806-5.178-1.55-5.178-4c0-1.984,1.86-3.814,5.023-3.814
			c1.767,0,3.349,0.558,4.155,1.364c0.465,0.465,0.682,0.961,0.682,1.519C105.613,39.882,105.055,40.471,104.311,40.471z"/>
		<path fill="#003E52" d="M117.78,40.471c-0.806,0-1.426-0.559-1.426-1.364c0-0.217,0.031-0.496,0.155-0.744
			c-0.465-0.311-1.333-0.465-2.325-0.465c-1.829,0-2.884,0.961-2.884,1.922c0,1.147,1.209,1.55,3.38,2.108
			c2.667,0.651,4.899,1.396,4.899,3.969c0,2.512-2.45,3.969-5.271,3.969c-1.922,0-3.876-0.62-4.775-1.52
			c-0.465-0.465-0.713-0.992-0.713-1.643c0-0.775,0.559-1.458,1.333-1.458c0.837,0,1.426,0.559,1.426,1.364
			c0,0.279-0.093,0.527-0.217,0.807c0.434,0.341,1.519,0.744,2.945,0.744c1.798,0,3.225-0.775,3.225-2.047
			c0-1.209-1.24-1.674-3.132-2.139c-3.193-0.806-5.178-1.55-5.178-4c0-1.984,1.86-3.814,5.023-3.814
			c1.767,0,3.349,0.558,4.155,1.364c0.465,0.465,0.682,0.961,0.682,1.519C119.083,39.882,118.524,40.471,117.78,40.471z"/>
		<path fill="#003E52" d="M124.388,43.633c0.311,2.915,2.232,4.341,5.085,4.341c1.768,0,3.101-0.558,4.651-1.457l-0.187,2.077
			c-1.364,0.837-3.069,1.271-4.744,1.271c-4.217,0-7.039-2.791-7.039-6.821c0-3.659,2.45-6.883,6.48-6.883
			c3.938,0,6.046,2.946,6.046,6.232c0,0.496-0.031,0.899-0.124,1.24H124.388z M124.419,41.928h8.093
			c-0.155-2.325-1.488-3.938-4-3.938C126.496,37.991,124.729,39.417,124.419,41.928z"/>
		<path fill="#003E52" d="M139.227,55.819c-1.24,0-2.294-0.713-2.294-1.736c0-0.868,0.589-1.364,1.333-1.364
			s1.209,0.558,1.396,1.147c0.496-0.187,0.992-0.589,1.581-1.488c0.311-0.465,0.62-1.116,0.992-1.86l0.807-1.644L138.08,38.3h-1.83
			v-1.891h6.17v1.83h-2.078c0,0,3.751,8.495,3.721,8.495l3.783-8.495h-2.17v-1.83h6.077V38.3h-1.798l-6.232,13.395
			c-0.341,0.713-0.682,1.333-1.085,1.892C141.646,55.013,140.561,55.819,139.227,55.819z"/>
		<path fill="#EE7700" d="M168.89,44.8c-1.32,2.112-3.3,4.091-5.742,5.147c-1.122,0.528-2.375,0.858-3.563,0.858
			c-1.98,0-4.092-0.66-5.478-1.914c-1.122-0.99-1.716-2.442-1.716-3.828c0-2.442,1.056-5.016,2.904-6.797
			c1.056-1.056,2.574-1.914,4.158-1.914c0.924,0,1.979,0.198,2.64,0.726c0.594,0.462,0.99,1.32,0.924,2.046
			c-0.066,1.056-0.396,2.178-1.188,2.97c-0.264,0.264-0.528,0.594-0.924,0.66c-0.33,0.132-0.66-0.066-0.99-0.198
			c-0.198-0.132-0.33-0.264-0.396-0.462c-0.132-0.462,0.462-0.924,0.792-1.32c0.33-0.528,0.462-1.122,0.528-1.716
			c0-0.198,0-0.396-0.198-0.462c-0.264-0.264-0.792-0.264-1.188-0.264c-1.188-0.066-2.31,0.792-3.036,1.65
			c-1.254,1.386-2.046,3.234-2.112,5.082c-0.066,0.99,0.396,2.178,1.254,2.904c0.99,0.924,2.574,1.386,4.025,1.452
			c2.508,0,4.95-1.452,6.666-3.168c0.462-0.396,0.858-0.858,1.254-1.386c0.198-0.198,0.33-0.594,0.66-0.726
			c0.264-0.132,0.66-0.198,0.858,0C169.154,44.272,169.022,44.602,168.89,44.8z"/>
		<path fill="#EE7700" d="M183.531,47.044c-1.056,1.716-3.036,3.366-5.082,3.432c-1.188,0-2.508-0.462-3.366-1.32
			c-0.99-1.056-1.386-2.706-1.386-4.158c-0.066-1.584,0.066-3.234,0.396-4.817c-0.99,0.33-2.046,0.396-2.97,0.198
			c-0.132,0-0.198-0.066-0.264-0.066c-0.132,0.264-0.264,0.528-0.396,0.792c-0.792,1.914-1.65,3.828-2.904,5.478
			c-0.396,0.594-0.858,1.188-1.32,1.65c-0.198,0.132-0.33,0.33-0.528,0.462c-0.132,0.066-0.198,0.198-0.33,0.132
			c-0.132,0-0.33,0-0.462-0.066c-0.132-0.066-0.264-0.198-0.198-0.33c0.132-0.33,0.396-0.462,0.594-0.726
			c0.396-0.396,0.66-0.858,0.99-1.32c1.056-1.65,1.782-3.498,2.508-5.279c0.264-0.792,0.528-1.584,0.792-2.376
			c-0.33-1.122-0.264-2.442,0.33-3.432c0.264-0.462,0.99-0.858,1.518-0.66c0.33,0.132,0.594,0.462,0.66,0.792
			c0.066,0.594-0.066,1.188-0.264,1.716c-0.066,0.462-0.198,0.858-0.33,1.254c0,0.066,0.066,0.132,0,0.132
			c1.122,0.198,2.508-0.132,3.366-0.858c0.396-0.264,0.858-0.33,1.254-0.066c0.396,0.264,0.528,0.726,0.396,1.188
			c-0.792,1.98-1.056,4.092-1.122,6.204c0,1.056,0.132,2.178,0.726,2.97c0.528,0.66,1.452,1.056,2.31,1.122
			c1.254,0,2.441-0.858,3.366-1.65c0.33-0.33,0.594-0.858,0.99-1.122c0.264-0.198,0.594-0.33,0.858-0.198
			c0.132,0.066,0.132,0.33,0.066,0.462C183.663,46.714,183.597,46.912,183.531,47.044z"/>
		<path fill="#EE7700" d="M195.807,42.622c-0.924,2.046-2.046,4.158-3.629,5.742c-1.32,1.188-3.036,2.046-4.818,2.112
			c-4.158,0.066-6.863-2.838-6.863-6.929c0-2.31,0.99-4.686,2.508-6.402c0.858-0.924,2.046-1.782,3.3-1.782
			c0.99,0,2.112,0.528,2.706,1.32c0.396,0.462,0.594,1.188,0.528,1.782c-0.396,1.979-1.452,3.761-2.574,5.411
			c-0.924,1.32-2.045,2.508-3.299,3.564c0.924,0.924,2.375,1.386,3.695,1.386c1.188,0.066,2.112-0.198,3.036-0.858
			c1.254-0.924,2.31-2.112,3.168-3.432c0.33-0.594,0.66-1.188,0.99-1.782c0.264-0.462,0.594-1.056,1.122-1.122
			c0.132-0.066,0.198,0,0.264,0.066c0.066,0.066,0.066,0.264,0.066,0.396C195.939,42.292,195.873,42.424,195.807,42.622z
			 M187.359,37.607c-0.264-0.198-0.66-0.396-1.056-0.396c-0.99,0.066-1.782,1.056-2.376,1.848c-0.858,1.32-1.518,2.904-1.518,4.488
			c-0.066,0.924,0.132,1.914,0.528,2.706c0.858-0.858,1.65-1.782,2.31-2.838c1.122-1.583,2.178-3.366,2.442-5.279
			C187.755,37.937,187.558,37.739,187.359,37.607z"/>
		<path fill="#EE7700" d="M205.692,50.211c-1.056,0-2.244-0.33-2.97-1.122c-0.594-0.594-1.056-1.386-1.254-2.178
			c-0.264,0.396-0.594,0.858-0.858,1.254c-0.858,1.188-2.178,2.375-3.63,2.441c-0.858,0-1.716-0.528-2.244-1.254
			c-0.858-1.122-1.122-2.771-1.122-4.224c0-2.64,1.056-5.345,2.706-7.391c0.858-1.122,2.31-2.046,3.696-2.046
			c1.188,0,2.574,0.462,3.168,1.452c0.33,0.726,0.462,1.782-0.066,2.442c-0.198,0.198-0.594,0.198-0.858,0.198
			c-0.198,0-0.462-0.066-0.594-0.198c-0.396-0.33-0.066-0.99-0.33-1.452c-0.198-0.33-0.858-0.33-1.32-0.33
			c-1.122-0.066-2.046,1.056-2.706,1.98c-1.122,1.518-1.848,3.432-1.914,5.345c0,0.924,0.066,1.848,0.396,2.706
			c0.198,0.528,0.594,1.188,1.188,1.188c0.924,0.066,1.716-0.792,2.31-1.452c0.726-0.792,1.386-1.716,1.848-2.706
			c0-0.66,0-1.254,0.132-1.848c0.066-0.528,0.132-0.99,0.396-1.386c0.198-0.264,0.594-0.198,0.858-0.132
			c0.132-0.066,0.33-0.066,0.396-0.066c0.132,0.066,0.198,0.132,0.198,0.264c0.132,0.066,0.33,0.132,0.33,0.264
			c0.066,0.33-0.066,0.66-0.066,0.924c-0.132,0.66-0.198,1.386-0.132,2.046c0,0.924,0.132,1.98,0.726,2.706
			c0.396,0.462,1.056,0.726,1.716,0.792c2.441,0.132,4.62-2.771,5.675-4.554c0.396-0.66,0.726-0.924,1.056-0.66
			C213.281,43.81,209.585,50.146,205.692,50.211z"/>
		<path fill="#EE7700" d="M225.358,30.215c-3.564,0.132-7.127,0.198-10.757,0.198l-0.264,1.518
			c-0.726,3.762-1.518,7.655-1.518,11.483c0,1.65,0,3.432,0.924,4.752c0.462,0.726,1.452,1.188,2.31,1.188
			c0.924,0,1.848-0.462,2.574-0.99c1.188-0.924,2.112-2.046,2.904-3.3c0.264-0.462,0.528-0.924,0.792-1.452
			c0.132-0.198,0.132-0.462,0.33-0.594c0.264-0.198,0.594-0.33,0.792-0.198c0.198,0.198,0.132,0.528,0.066,0.792
			c-0.858,2.046-2.046,4.091-3.762,5.543c-1.056,0.858-2.375,1.65-3.695,1.65c-1.122,0-2.31-0.33-3.102-1.122
			c-0.99-0.924-1.452-2.31-1.716-3.629c-0.33-1.914-0.264-3.894-0.132-5.874c0.132-2.376,0.528-4.752,0.924-7.127
			c0.132-0.858,0.33-1.782,0.462-2.64l-2.64-0.066c-1.782,0-3.63,0-5.412-0.132c-0.594,0-1.188-0.066-1.782-0.132
			c-0.33,0-0.66,0-0.858-0.198c-0.264-0.132-0.264-0.528-0.33-0.792c-0.066-0.198-0.066-0.396,0-0.594
			c0.132-0.33,0.528-0.462,0.858-0.396c0.462,0,0.858,0,1.32,0c1.254,0.066,2.508,0.132,3.762,0.198l5.478,0.264l0.132-0.792
			c0.132-0.528,0.264-1.056,0.396-1.583c0.066-0.264,0.132-0.66,0.33-0.924c0.132-0.264,0.528-0.264,0.858-0.33
			c0.198-0.066,0.462-0.066,0.594,0.066c0.33,0.264,0.33,0.726,0.264,1.122c-0.132,0.462-0.198,0.99-0.264,1.452l-0.198,1.056
			l3.762,0.198l5.147,0.264l0.924,0.066c0.198,0,0.462-0.066,0.594,0.066c0.264,0.132,0.396,0.462,0.33,0.66
			C225.688,30.083,225.49,30.149,225.358,30.215z"/>
		<path fill="#EE7700" d="M229.779,50.211c-0.924,0.528-1.98,0.858-3.036,0.858c-1.188,0-2.442-0.594-3.168-1.452
			c-1.32-1.518-1.848-3.696-1.782-5.675c0-0.858,0.132-1.782,0.33-2.64c0.132-0.462,0.198-0.924,0.528-1.254
			c0.198-0.264,0.594-0.132,0.924-0.066c0.198,0,0.396,0.066,0.528,0.132c0.132,0.066,0.264,0.264,0.33,0.396
			c0.066,0.33-0.198,0.726-0.264,1.122c-0.132,0.726-0.264,1.518-0.264,2.31c-0.066,1.386,0.132,2.903,0.858,4.157
			c0.396,0.66,1.122,1.254,1.98,1.32c1.65,0.066,3.366-0.924,4.487-2.178c0.33-0.33,0.594-0.726,0.792-1.056
			c0.132-0.132,0.132-0.396,0.33-0.462c0.198-0.132,0.594-0.066,0.792,0.132c0.132,0.066,0.066,0.264,0.066,0.396
			C232.484,47.836,231.297,49.288,229.779,50.211z M223.971,37.277c-0.792,0-1.452-0.924-1.452-2.046c0-1.056,0.66-1.98,1.452-1.98
			s1.386,0.924,1.386,1.98C225.357,36.353,224.763,37.277,223.971,37.277z"/>
		<path fill="#EE7700" d="M247.384,45.658c-1.056,1.188-2.837,1.979-4.487,1.848c-0.726,0-1.452-0.264-2.046-0.726
			c-0.33-0.264-0.66-0.594-0.858-0.99c-0.33,0.528-0.594,1.056-0.924,1.518c-0.66,0.99-1.452,1.914-2.31,2.706
			c-0.594,0.594-1.452,1.122-2.31,0.99c-0.462,0-0.924-0.264-1.188-0.66c-0.528-0.462-0.726-1.188-0.924-1.848
			c-0.462-1.716-0.396-3.498-0.264-5.279c0.066-0.99,0.198-1.98,0.33-2.97c0.066-0.33,0.132-0.66,0.198-0.99
			c0-0.198,0-0.462,0.132-0.594c0.132-0.066,0.264-0.132,0.396-0.198c0.132-0.066,0.33-0.066,0.396,0.066
			c0.132,0.264,0.066,0.594,0,0.924c0,0.528-0.066,1.056-0.066,1.584c-0.066,1.716-0.132,3.366,0.066,5.082
			c0.132,0.726,0.198,1.518,0.462,2.244c0.132,0.33,0.33,0.924,0.66,0.924c0.726-0.198,1.188-0.858,1.65-1.452
			c0.66-0.726,1.254-1.584,1.782-2.508c0.33-0.66,0.726-1.386,1.056-2.112c-0.132-0.726-0.132-1.452-0.066-2.178
			c0.132-1.518,0.462-3.036,1.188-4.356c0.132-0.264,0.462-0.462,0.858-0.396c0.33,0,0.594,0.264,0.726,0.594
			c0.462,1.32,0.33,2.904,0,4.29c-0.264,0.99-0.594,1.914-0.99,2.838v0.132c0.132,0.528,0.462,1.122,0.924,1.518
			c0.33,0.33,0.858,0.462,1.32,0.528c0.858,0.132,1.782-0.066,2.508-0.462c0.264-0.198,0.594-0.396,0.792-0.594
			c0.198-0.132,0.33-0.33,0.528-0.396c0.264-0.066,0.66-0.132,0.792,0.066C247.846,45.064,247.583,45.394,247.384,45.658z"/>
		<path fill="#EE7700" d="M261.494,42.622c-0.924,2.046-2.046,4.158-3.629,5.742c-1.32,1.188-3.036,2.046-4.818,2.112
			c-4.158,0.066-6.863-2.838-6.863-6.929c0-2.31,0.99-4.686,2.508-6.402c0.858-0.924,2.046-1.782,3.3-1.782
			c0.99,0,2.112,0.528,2.706,1.32c0.396,0.462,0.594,1.188,0.528,1.782c-0.396,1.979-1.452,3.761-2.574,5.411
			c-0.924,1.32-2.046,2.508-3.299,3.564c0.924,0.924,2.375,1.386,3.695,1.386c1.188,0.066,2.112-0.198,3.036-0.858
			c1.254-0.924,2.31-2.112,3.168-3.432c0.33-0.594,0.66-1.188,0.99-1.782c0.264-0.462,0.594-1.056,1.122-1.122
			c0.132-0.066,0.198,0,0.264,0.066c0.066,0.066,0.066,0.264,0.066,0.396C261.626,42.292,261.56,42.424,261.494,42.622z
			 M253.046,37.607c-0.264-0.198-0.66-0.396-1.056-0.396c-0.99,0.066-1.782,1.056-2.376,1.848c-0.858,1.32-1.518,2.904-1.518,4.488
			c-0.066,0.924,0.132,1.914,0.528,2.706c0.858-0.858,1.65-1.782,2.31-2.838c1.122-1.583,2.178-3.366,2.442-5.279
			C253.442,37.937,253.245,37.739,253.046,37.607z"/>
	</g>
</g>
</svg>
