<?xml version="1.0" encoding="utf-8"?>
<!-- Generator: Adobe Illustrator 16.0.4, SVG Export Plug-In . SVG Version: 6.00 Build 0)  -->
<!DOCTYPE svg PUBLIC "-//W3C//DTD SVG 1.1//EN" "http://www.w3.org/Graphics/SVG/1.1/DTD/svg11.dtd">
<svg version="1.1" xmlns="http://www.w3.org/2000/svg" xmlns:xlink="http://www.w3.org/1999/xlink" x="0px" y="0px"
	 width="1002.959px" height="8.438px" viewBox="0 0 1002.959 8.438" enable-background="new 0 0 1002.959 8.438"
	 xml:space="preserve">
<g id="Layer_1">
</g>
<g id="background">
</g>
<g id="Layer_6">
	<path fill="none" stroke="#EE7700" stroke-width="0.4991" stroke-miterlimit="10" d="M2.209,3.011c4.998,0,4.998,4.353,9.995,4.353
		c4.997,0,4.997-4.353,9.994-4.353c4.998,0,4.998,4.353,9.994,4.353s4.997-4.353,9.994-4.353c4.998,0,4.998,4.353,9.995,4.353
		c4.998,0,4.998-4.353,9.995-4.353c4.998,0,4.998,4.353,9.995,4.353c4.997,0,4.997-4.353,9.994-4.353s4.997,4.353,9.994,4.353
		s4.997-4.353,9.994-4.353s4.997,4.353,9.995,4.353c4.998,0,4.998-4.353,9.996-4.353c4.998,0,4.998,4.353,9.995,4.353
		s4.997-4.353,9.994-4.353s4.997,4.353,9.995,4.353c4.997,0,4.997-4.353,9.995-4.353c4.998,0,4.998,4.353,9.996,4.353
		c4.997,0,4.997-4.353,9.995-4.353s4.998,4.353,9.995,4.353s4.997-4.353,9.994-4.353c4.998,0,4.998,4.353,9.996,4.353
		s4.998-4.353,9.996-4.353c4.997,0,4.997,4.353,9.995,4.353s4.998-4.353,9.995-4.353s4.997,4.353,9.995,4.353
		c4.995,0,4.995-4.353,9.989-4.353s4.995,4.353,9.989,4.353c4.996,0,4.996-4.353,9.991-4.353c4.996,0,4.996,4.353,9.993,4.353
		c4.998,0,4.998-4.353,9.996-4.353c4.998,0,4.998,4.353,9.995,4.353c4.996,0,4.996-4.353,9.992-4.353
		c4.995,0,4.995,4.353,9.991,4.353c4.995,0,4.995-4.353,9.99-4.353c4.996,0,4.996,4.353,9.991,4.353
		c4.997,0,4.997-4.353,9.993-4.353c4.998,0,4.998,4.353,9.996,4.353c4.998,0,4.998-4.353,9.995-4.353
		c4.997,0,4.997,4.353,9.993,4.353c4.996,0,4.996-4.353,9.992-4.353s4.996,4.353,9.991,4.353c4.997,0,4.997-4.353,9.994-4.353
		c4.998,0,4.998,4.353,9.996,4.353c4.998,0,4.998-4.353,9.995-4.353c4.997,0,4.997,4.353,9.994,4.353
		c4.996,0,4.996-4.353,9.992-4.353c4.997,0,4.997,4.353,9.994,4.353c4.998,0,4.998-4.353,9.996-4.353s4.998,4.353,9.996,4.353
		c4.997,0,4.997-4.353,9.994-4.353s4.997,4.353,9.994,4.353c4.998,0,4.998-4.353,9.994-4.353c4.999,0,4.999,4.353,9.998,4.353
		c4.998,0,4.998-4.353,9.995-4.353c4.998,0,4.998,4.353,9.994,4.353c4.998,0,4.998-4.353,9.995-4.353
		c4.999,0,4.999,4.353,9.999,4.353c4.997,0,4.997-4.353,9.995-4.353c4.997,0,4.997,4.353,9.994,4.353
		c4.999,0,4.999-4.353,9.997-4.353c4.999,0,4.999,4.353,9.997,4.353c4.997,0,4.997-4.353,9.995-4.353s4.998,4.353,9.996,4.353
		c4.999,0,4.999-4.353,9.997-4.353c4.999,0,4.999,4.353,9.996,4.353c4.998,0,4.998-4.353,9.998-4.353
		c4.998,0,4.998,4.353,9.997,4.353c4.998,0,4.998-4.353,9.996-4.353c5,0,5,4.353,9.998,4.353s4.998-4.353,9.997-4.353
		s4.999,4.353,9.999,4.353c4.998,0,4.998-4.353,9.997-4.353s4.999,4.353,9.998,4.353s4.999-4.353,9.997-4.353
		c5,0,5,4.353,9.999,4.353c4.998,0,4.998-4.353,9.998-4.353c4.999,0,4.999,4.353,9.997,4.353c5,0,5-4.353,9.999-4.353
		c5,0,5,4.353,10,4.353c4.998,0,4.998-4.353,9.997-4.353c4.997,0,4.997,4.353,9.994,4.353c4.999,0,4.999-4.353,9.996-4.353
		c4.998,0,4.998,4.353,9.996,4.353c4.999,0,4.999-4.353,9.998-4.353c4.997,0,4.997,4.353,9.996,4.353s4.999-4.353,9.998-4.353
		c5.001,0,5.001,4.353,10.001,4.353c4.999,0,4.999-4.353,9.998-4.353s4.999,4.353,10,4.353c5,0,5-4.353,9.999-4.353
		c5.002,0,5.002,4.353,10.002,4.353c5.001,0,5.001-4.353,10.001-4.353s5,4.353,10.001,4.353c4.999,0,4.999-4.353,9.999-4.353
		c4.999,0,4.999,4.353,9.997,4.353c5.001,0,5.001-4.353,10.001-4.353c5.003,0,5.003,4.353,10.005,4.353c5,0,5-4.353,10.002-4.353
		c5.003,0,5.003,4.353,10.007,4.353c5.005,0,5.005-4.353,10.009-4.353"/>
	<circle fill="#003E52" cx="2.5" cy="3.085" r="2.5"/>
	<circle fill="#003E52" cx="1000.459" cy="3.085" r="2.5"/>
</g>
<g id="Layer_7" display="none">
</g>
<g id="Layer_2">
</g>
</svg>
